<svg xmlns="http://www.w3.org/2000/svg" viewBox="0 0 406.3 140.8">
  <g fill="#FFF">
    <path d="M57.7 102.5c0-5.8-5.5-8.3.4-16 4.3-5.5 1.5-10.4 4.7-1.5 3 7.9 2.5 13.2-4.6 18.2-.2.2-.5-.3-.5-.7zm-11.1-6.8c.1-5.8-5-8.6 1.2-16 4.4-5.3 1.8-10.2 4.7-1.3 2.7 8 2.1 13.3-5.3 18.1-.4 0-.6-.4-.6-.8zM36.7 85c1.2-5.6-3.4-9.3 4.1-15.4 5.3-4.4 3.7-9.8 4.9-.4 1 8.4-.6 13.5-8.7 16.7-.3 0-.5-.5-.3-.9zm-7.6-10.8c1.5-5.6-3-9.5 4.7-15.3 5.6-4.1 4.1-9.5 4.9-.3.9 8.4-1 13.5-9.2 16.4-.4.1-.5-.4-.4-.8zm-4.4-14.4c1.6-4.9-2.2-8.6 5-13.5 5.2-3.4 4.1-8.3 4.4 0 .1 4.7-.1 11.4-6.2 12.9-1.6.4-3.8 2.4-3.2.6zm-3-13.2c1.8-4.6-1.5-8.3 5.8-12.3 5.2-3 4.6-7.6 4.1.3-.1 4.4-1 10.7-6.8 11.7-1.7.3-3.8 1.9-3.1.3zm.8-15.7c1.6-3.9-1-7.1 5.2-10.4 4.6-2.4 4.1-6.4 3.6.4-.7 7.9-2.9 9.6-8.8 10zm-.3-7.9c0-4.1-3.9-6.1.6-11.6 3.1-4 1.2-7.4 3.4-1 2.6 7.6 1.2 10-4 12.6z"/>
    <path d="M29.3 75.2c2.5 4.9 6.2 9.6 9.6 13.8 19.4 23.7 36.9 11.7 37 18.2 0 2.2-15.6 2.2-26.2-5.6-21.5-15.6-35.6-49-28.3-75 1.5-5.6-1.2 8-.9 19.4.5 12.2 6.6 24.6 8.8 29.2zm25.6 31.7c-5.5-1.5-6.8-7.3-15.7-3.3-6.2 2.8-10.2-1-2.5 4.3 7.1 4.7 12.3 5.5 18.8-.3.3-.2 0-.5-.6-.7z"/>
    <path d="M33.7 86.9c-5-2.7-5-8.6-14.5-6.7-6.8 1.5-9.9-3.1-3.4 3.6 5.8 6.2 10.8 8.1 18.4 4 .3-.3.1-.7-.5-.9zM43.5 98c-5.3-2.2-5.6-8.1-15-5.5-6.7 1.9-10.1-2.5-3.3 3.9 6.4 5.6 11.4 7.3 18.7 2.4.3-.3.2-.6-.4-.8zM26.9 75.2c-4.1-3.4-3-8.9-12-8.9-6.5-.1-8.4-5-3.9 2.5 2.5 4.1 6.5 9.6 12.6 7.7 1.8-.6 4.8-.1 3.3-1.3zm-5.8-14.4c-3.3-3.6-1.5-8.1-9.5-9.5-5.8-1-6.8-5.6-3.9 1.8 1.6 4 4.6 9.5 10.2 8.4 2-.2 4.4.7 3.2-.7zm-2.5-13.6c-1.5-4.1 1.8-7.4-4.4-11.6-4.6-3-3.7-7.1-3.9.1-.1 4.3.4 9.6 5.5 11 1.6.3 3.3 2 2.8.5zM19.7 31c-.6-4 2.8-6.4-2.2-11.1-3.7-3.3-2.2-7-3.4-.4-1.7 7.5.1 9.6 5.6 11.5zm75.1 72.2c-7.1-5-7.6-10.4-4.6-18.2 3.3-8.9.4-4 4.7 1.5 5.9 7.7.4 10.2.4 16 .1.4-.2.9-.5.7zm11.1-6.8c-7.4-4.7-8-10.1-5.3-18.1 3-8.9.3-4 4.7 1.3 6.2 7.4 1 10.2 1.2 16 0 .5-.2.9-.6.8zm10.2-10.5c-8.1-3.3-9.8-8.3-8.7-16.7 1.2-9.3-.4-4 4.9.4 7.6 6.1 3 9.8 4.1 15.4.2.4 0 .9-.3.9zm7.4-10.8c-8.1-3-10.1-8-9.2-16.4.7-9.2-.7-3.9 4.9.3 7.7 5.8 3.3 9.6 4.7 15.3.2.3.1.8-.4.8zm1.7-15.9c-6.1-1.5-6.4-8.1-6.2-12.9.3-8.3-.7-3.4 4.4 0 7.3 4.9 3.4 8.6 5 13.5.6 1.8-1.6-.2-3.2-.6zm3.1-12.9c-5.8-1-6.7-7.3-6.8-11.7-.4-7.9-1-3.3 4.1-.3 7.3 4 4 7.7 5.8 12.3.7 1.6-1.4 0-3.1-.3zM121.9 21c-.6-6.8-1-2.8 3.6-.4 6.2 3.3 3.6 6.5 5.2 10.4-6-.5-8.2-2.2-8.8-10zm5-10.6c2.2-6.4.3-3 3.4 1 4.4 5.5.6 7.4.6 11.6-5.2-2.6-6.6-5-4-12.6z"/>
    <path d="M132.6 46c.3-11.4-2.4-25-.9-19.4 7.3 25.9-6.8 59.4-28.3 75-10.7 7.9-26.2 7.9-26.2 5.6.1-6.5 17.6 5.5 37-18.2 3.4-4.1 7.1-8.9 9.6-13.8 2.2-4.6 8.3-17 8.8-29.2zm-35 61.7c6.5 5.8 11.7 5 18.8.3 7.7-5.3 3.7-1.5-2.5-4.3-8.9-4-10.2 1.8-15.7 3.3-.6.1-.9.4-.6.7z"/>
    <path d="M118.9 87.8c7.6 4.1 12.6 2.2 18.4-4 6.5-6.7 3.4-2.1-3.4-3.6-9.5-1.9-9.5 4-14.5 6.7-.6.2-.8.6-.5.9zm-9.7 11c7.3 4.9 12.3 3.3 18.7-2.4 6.8-6.4 3.4-1.9-3.3-3.9-9.3-2.7-9.6 3.3-15 5.5-.6.2-.7.5-.4.8zm20.3-22.3c6.1 1.9 10.1-3.6 12.6-7.7 4.6-7.6 2.7-2.7-3.9-2.5-9 0-7.9 5.5-12 8.9-1.5 1.2 1.5.7 3.3 1.3zm5.6-14.9c5.6 1 8.6-4.4 10.2-8.4 3-7.4 1.9-2.8-3.9-1.8-8 1.3-6.2 5.9-9.5 9.5-1.1 1.3 1.3.4 3.2.7zm2.2-14.8c5-1.3 5.6-6.7 5.5-11-.1-7.3.7-3.1-3.9-.1-6.2 4.1-3 7.4-4.4 11.6-.5 1.4 1.2-.3 2.8-.5zm1.8-27.3c-1.2-6.5.3-2.8-3.4.4-5 4.7-1.6 7.1-2.2 11.1 5.4-1.9 7.2-4 5.6-11.5z"/>
  </g>
  <path fill="#FFF" d="M76.6 18.9L64.7 29.2 51.5 36l-16.3 4.4-8.1 1.4 1.5 16.4 4.6 21.9 5.9 17.5 10.8 17.2 11.5 9.9 7.7 4.2 7.5 3.7 9.2-3.7 8.5-5.6 8.5-9.5 9.5-12.7 6.6-17.7 3.5-12.2 2.5-14.7.8-10.1v-6l-10-.2-6.5-1.9-8.3-1.9-12.6-6.6-6.4-6.2"/>
  <path fill="#D6B24D" d="M76.6 133.9c53.2-17.3 50.5-94.3 50.5-94.3-34.4-.9-50.5-24.1-50.5-24.1S60.4 38.7 26 39.6c0 0-2.6 77 50.6 94.3zM28.9 42.4c26.6-1.6 42-15.9 47.6-22.3 5.6 6.4 21.1 20.6 47.6 22.3-.1 6-.7 21.1-5.3 37.2-7.6 26.9-21.8 44.2-42.3 51.2-20.6-7.1-34.8-24.3-42.4-51.3-4.4-16.2-5.1-31.2-5.2-37.1z"/>
  <path fill="#D6B24D" d="M76.6 128.9c19.6-7 33.3-23.7 40.6-49.8 4.1-14.7 5-28.5 5.2-35.1C98 42 82.9 29.4 76.6 22.7 70.2 29.4 55.2 42 30.7 44c.2 6.6 1 20.3 5.1 35 7.4 26.2 21.1 43 40.8 49.9zM31.9 45.1c22.9-2.2 37.5-13.5 44.6-20.7 7.1 7.2 21.7 18.5 44.6 20.7-.2 7.1-1.3 20-5.1 33.7-7.2 25.5-20.5 42-39.5 48.9-19.1-6.9-32.4-23.4-39.6-49-3.7-13.7-4.7-26.5-5-33.6z"/>
  <path fill="#D6B24D" d="M76.6 75.8v50.6c18.5-6.9 31.4-23 38.4-48 .3-.9.5-1.8.7-2.7H76.6zm0-49.7c-7 6.9-21.3 17.7-43.4 20.1.3 6.4 1.2 17.6 4.3 29.7h39.1V26.1z"/>
  <path fill="#FFF" d="M100.2 90.3c-.1-.3-.5-.4-.8-.4-.1 0-.2 0-.3-.1-.1 0-.1 0-.2-.1-.5-.1-1.7-.4-2.5-.3-.2.1-.5.1-.7.3.1-.1.2-.3.3-.4.5-.7.5-1.8.6-2.6v-.5c0-.1 0-.2.1-.2.1-.3.1-.7-.2-.8-.3-.2-.6.1-.9.3-.1.1-.2.1-.2.2 0 0-.1.1-.2.1-.5.3-1.6.9-2 1.6-.1.2-.2.4-.3.7 0-.2 0-.4-.1-.5-.2-.8-.9-1.7-1.4-2.2-.1-.1-.2-.2-.3-.4-.1-.1-.1-.1-.1-.2-.2-.2-.4-.6-.7-.5-.3.1-.4.5-.4.8 0 .1 0 .2-.1.3 0 0 0 .1-.1.2-.1.5-.4 1.7-.3 2.5.1.2.1.5.3.7-.1-.1-.3-.2-.4-.3-.7-.5-1.8-.5-2.6-.6H86c-.3-.1-.7-.1-.8.2-.2.3.1.6.3.9.1.1.1.2.2.2 0 0 .1.1.1.2.3.5.9 1.6 1.6 2 .2.1.4.2.7.3-.2 0-.4 0-.5.1-.8.2-1.7.9-2.2 1.4-.1.1-.2.2-.4.3 0 0-.1.1-.2.1-.2.2-.6.4-.5.7.1.3.5.4.8.4h.3s.1 0 .2.1c.4.1 1.3.3 2 .3.2 0 .4 0 .5-.1.2 0 .5-.1.7-.3-.1.1-.2.3-.3.4-.5.7-.5 1.8-.6 2.6v.7c-.1.3-.1.7.2.8.1 0 .1.1.2.1.2 0 .5-.2.7-.3.1-.1.2-.1.2-.2 0 0 .1-.1.2-.1.5-.3 1.6-.9 2-1.6.1-.2.2-.4.3-.7 0 .2 0 .4.1.5.2.8.9 1.7 1.4 2.2.1.1.2.2.3.4.1.1.1.1.1.2.1.2.3.5.6.5h.1c.3-.1.4-.5.4-.8v-.3c0-.1 0-.1.1-.2.1-.5.4-1.7.3-2.5 0-.2-.2-.5-.3-.7.1.1.3.2.4.3.7.5 1.8.5 2.6.6h.5c.1 0 .2 0 .2.1.1 0 .3.1.4.1.2 0 .3-.1.4-.2.2-.3-.1-.6-.3-.9-.1-.1-.1-.2-.2-.2 0 0-.1-.1-.1-.2-.3-.5-.9-1.6-1.6-2-.2-.1-.4-.2-.7-.3.2 0 .4 0 .5-.1.8-.2 1.7-.9 2.2-1.4.1-.1.2-.2.4-.3.1-.1.1-.1.2-.1.2-.3.6-.5.5-.8zm-6.7-2.7c.4-.6 1.4-1.2 1.9-1.5.1 0 .1-.1.2-.1.1-.1.2-.1.3-.2.1-.1.3-.2.4-.2.1.1.1.2 0 .5 0 .1 0 .2-.1.3v.5c-.1.8-.1 1.7-.5 2.4-.3.5-1.1 1-1.7 1.5.6-.6 1.4-1.3 1.6-1.7.4-1 .2-1.7.2-2.5 0-.1-.1-.1-.1-.1-.7.4-1.5.6-2.1 1.6-.3.5-.5 1.4-.7 2.2.1-1 .3-2.2.6-2.7zm2 6c.4.1 1.4.7 1.1 1.3-.3.6-1.3-.1-1.6-.4-.4-.4-1-1-1-1.1 0-.2.9 0 1.5.2zm-1.3-1.8c0-.1.7-.6 1.2-.9.4-.2 1.5-.5 1.7.1.2.7-1 .9-1.4.9-.5 0-1.4.1-1.5-.1zm-.9-1.2c-.1-.1.1-.9.3-1.5.1-.4.7-1.4 1.3-1.1.6.3-.1 1.3-.4 1.6-.4.4-1 1-1.2 1zm-3.2-4.9c0-.1 0-.1.1-.2 0-.1 0-.2.1-.3 0-.2.1-.5.2-.5s.2.1.3.3c.1.1.1.2.2.2.1.1.2.2.3.4.5.6 1.1 1.3 1.3 2.1.1.5 0 1.5-.1 2.3.1-.8.1-1.9-.1-2.3-.4-1-1.1-1.4-1.6-1.9h-.1c-.2.8-.6 1.5-.4 2.5.1.6.6 1.4 1.1 2-.6-.7-1.3-1.7-1.4-2.3-.3-.6 0-1.8.1-2.3zm1.7 4.6c-.1 0-.6-.7-.9-1.2-.2-.4-.5-1.5.1-1.7.7-.2.9 1 .9 1.4.1.6.1 1.5-.1 1.5zm-.8 5.1c-.1.4-.7 1.4-1.3 1.1-.6-.3.1-1.3.4-1.6.4-.4 1-1 1.1-1 .1.1 0 1-.2 1.5zM87.6 91c-.6-.4-1.2-1.4-1.5-1.9 0-.1-.1-.1-.1-.2-.1-.1-.1-.2-.2-.3-.1-.2-.3-.4-.2-.5l.1-.1c.1 0 .2 0 .3.1.1 0 .2 0 .3.1h.5c.8.1 1.7.1 2.4.5.5.3 1 1.1 1.5 1.7-.6-.4-1.3-1.1-1.7-1.4-1-.4-1.7-.2-2.5-.2-.1 0-.1.1-.1.1.4.7.7 1.5 1.6 2.1.5.3 1.4.5 2.2.7-.9-.1-2.1-.3-2.6-.7zm1.5-.1c-.4-.1-1.4-.7-1.1-1.3.3-.6 1.3.1 1.6.4.4.4 1 1 1 1.1-.1.2-.9 0-1.5-.2zm1.2 1.8c0 .1-.7.6-1.2.9-.4.2-1.5.5-1.7-.1-.2-.7 1-.9 1.4-.9.6 0 1.5 0 1.5.1zm-2.2 2c-.7.2-1.9-.1-2.4-.3-.1 0-.1 0-.2-.1-.1 0-.2 0-.3-.1-.2 0-.5-.1-.5-.2s.1-.2.3-.3c.1-.1.2-.1.2-.2.1-.1.2-.2.4-.3.6-.5 1.3-1.1 2.1-1.3.1 0 .3-.1.5-.1.5 0 1.2.1 1.7.2-.8-.1-1.9-.1-2.3.1-1 .4-1.4 1.1-1.9 1.6v.1c.8.2 1.5.6 2.6.4.6-.1 1.4-.7 2-1.1-.6.8-1.6 1.5-2.2 1.6zm3 2.2c-.4.6-1.4 1.2-1.9 1.5-.1 0-.1.1-.2.1-.1.1-.2.1-.3.2-.2.1-.4.3-.5.2-.1-.1-.1-.2 0-.5 0-.1 0-.2.1-.3v-.5c.1-.8.1-1.7.5-2.4.3-.5 1.1-1 1.7-1.5-.6.6-1.4 1.3-1.6 1.7-.4 1-.2 1.7-.2 2.5 0 .1.1.1.1.1.7-.4 1.5-.6 2.1-1.6.3-.5.5-1.4.7-2.2 0 1-.2 2.2-.5 2.7zm.3-4.4c-.1-.4.2-.9.6-1h.2c.4 0 .7.2.8.6.1.2 0 .4-.1.6-.1.2-.3.3-.5.4h-.2c-.3 0-.7-.3-.8-.6zm2.2 3c.2.4.5 1.5-.1 1.7-.7.2-.9-1-.9-1.4 0-.5 0-1.4.1-1.5.1-.1.6.6.9 1.2zm.8 3.3c0 .1 0 .1-.1.2 0 .1 0 .2-.1.3 0 .2-.1.5-.2.5s-.2-.1-.3-.3c-.1-.1-.1-.2-.2-.2-.1-.1-.2-.2-.3-.4-.5-.6-1.1-1.3-1.3-2.1-.1-.5 0-1.5.1-2.3 0 .8 0 1.9.1 2.3.4 1 1.1 1.4 1.6 1.9h.1c.2-.8.6-1.5.4-2.5-.1-.6-.6-1.4-1.1-2 .6.7 1.3 1.7 1.4 2.3.4.6.1 1.8-.1 2.3zm2.5-5.3c.6.4 1.2 1.4 1.5 1.9 0 .1.1.1.1.2.1.1.1.2.2.3.1.2.3.4.2.5-.1.1-.2.1-.5 0-.1 0-.2 0-.3-.1h-.5c-.6-.2-1.6-.3-2.3-.7-.5-.3-1-1-1.5-1.7.6.6 1.3 1.4 1.7 1.6 1 .4 1.7.2 2.5.2.1 0 .1-.1.1-.1-.4-.7-.6-1.5-1.6-2.1-.5-.3-1.4-.5-2.2-.7.9.2 2.1.3 2.6.7zm2.6-2.8c-.1.1-.2.1-.2.2-.1.1-.2.2-.4.3-.6.5-1.3 1.1-2.1 1.3-.5.1-1.5 0-2.3-.1.8.1 1.9.1 2.3-.1 1-.4 1.4-1.1 1.9-1.6v-.1c-.8-.2-1.5-.6-2.5-.4-.6.1-1.4.6-2 1.1.7-.6 1.7-1.3 2.3-1.4.7-.1 1.9.2 2.4.3.1 0 .1 0 .2.1.1 0 .2 0 .3.1.2 0 .5.1.5.2 0-.1-.2 0-.4.1zm-7.1 2c.2-.1.4-.3.3-.6-.1-.2-.2-.4-.5-.4h-.1c-.2.1-.4.3-.3.6.1.2.2.4.5.4h.1zM64.7 57.6c.4.6.8 1.2.9 2 .1 1.1.1 2.1-.2 3.2-.1.4-.2.8-.6.9-.5 0-.6-.5-.7-.9-.4-1.4-.4-2.8 0-4.3 0-.3.1-.7.6-.9zm-2.5 2.5c.4.4.3.8.2 1.2-.3 1.4-1 2.7-2.1 3.8-.3.3-.6.6-1 .4-.4-.2-.3-.7-.2-1.1.3-1.2.8-2.3 1.6-3.3.4-.3 1-.6 1.5-1zm-7.8-9.2c.1.9.3 1.7 0 2.5-.3.6-.5 1.2-.8 1.8-.2.3-.4.6-.6.8-.2.2-.5.5-.8.3-.3-.2-.4-.5-.3-.8.1-1.6.7-3.1 1.8-4.3.1-.2.1-.2.7-.3zm5.5 3c.8-.1 1.5-.4 2.2-.2.9.3 1.9.6 2.7 1.1.3.2.5.4.7.7.2.3.1.5-.2.6-.2.1-.4.1-.6.1-1.6 0-3-.5-4.2-1.4-.3-.2-.5-.4-.6-.9zm-4.3 1.3c.4.2.5.6.5.9.1 1.6-.3 3-1.1 4.4-.2.3-.4.7-.8.6-.4-.1-.4-.6-.4-.9-.1-1.2.2-2.3.6-3.4.2-.7.7-1.1 1.2-1.6zm2.9 7.8c-.5.5-1 1.1-1.6 1.3-1 .4-2.1.6-3.2.5-.3 0-.5-.1-.8-.2-.4-.2-.4-.5-.2-.8.2-.2.4-.4.6-.5 1.2-.6 2.5-.9 3.9-.9.5.1.9.2 1.3.6zm-9-6.2c.7.5 1.3.9 1.6 1.7.3.9.7 1.8.7 2.8 0 .4.1 1-.4 1.1-.4.1-.7-.3-1-.7-.8-1.2-1.3-2.5-1.4-4 .2-.3.1-.6.5-.9zm8.3-6.5c.4.6.9 1.2.9 2 .1 1 .1 2.1-.2 3.1-.1.4-.2.9-.7.9-.5 0-.6-.5-.7-.9-.4-1.4-.5-2.9-.1-4.3.2-.3.3-.7.8-.8zm4.6 7.5c.1.5-.2.7-.4.9-1.3 1-2.8 1.5-4.5 1.5h-.3c-.5-.1-.7-.4-.3-.9.2-.2.4-.3.6-.5 1-.6 2-1.1 3.2-1.2.4-.1 1.1.1 1.7.2z"/>
  <g fill="#D6B24D">
    <path d="M106.6 61.7c-2.1-.3-3.6-2-5.5-2.9-1.8-.9-3.7-1.4-5.6-1.8-1.8-.3-3.8-.4-5.6-.1-.8.1-1.6.4-2.4.7-.5.1-1.2.4-1.5.8l-1.5-.6c-.1 0-.4.1-.2.2.4.3.8.5 1.2.7.7 2 2.4 3.3 4.1 4.5 1.8 1.2 3.9 1.9 6.1 2.2 1.9.3 3.8.1 5.5-.8.8-.4 1.6-1 2.4-1.5.8-.5 1.6-.8 2.5-1.1.1 0 .2 0 .2.1.2.1.6-.3.3-.4zm-19.7-3.5c.8-.4 1.8-.7 2.7-.8 2.1-.4 4.2-.1 6.3.3 1.8.4 3.6 1 5.2 1.8 1.3.6 2.3 1.6 3.6 2.2-1.2 0-2.4.1-3.5.1-1.9.1-3.9-.1-5.8-.3-1.9-.3-3.7-.7-5.5-1.3-1.3-.4-2.4-1-3.7-1.5.3-.2.5-.4.7-.5zm15.7 5.1c-.8.5-1.6 1-2.5 1.4-1.1.4-2.3.4-3.5.3-2.1-.1-4.2-.9-6.1-1.9-1.7-.9-3.4-2.2-4.3-3.9.4.2.8.3 1.2.5.7 1.1 1.6 2.3 3 2.6 0 0 .1 0 .1-.1-.4-.5-.8-.8-1.3-1.2l-1.5-1.2 1.8.6c1.7.6 3.4 1 5.2 1.3 1.9.3 3.8.4 5.8.4 1.3 0 2.6.1 3.9 0-.6.4-1.3.9-1.8 1.2z"/>
    <path d="M92.4 62c-.6-.4-1.2-1-1.9-1.2 0 0-.2 0-.2.1.2.5.8.9 1.3 1.3.6.4 1.2.9 2 1.1 0 0 .2 0 .1-.1-.3-.5-.8-.9-1.3-1.2zm1.4-.3c-.1 0-.3.1-.2.1 1 .8 2 1.5 3.3 1.6 0 0 .2 0 .1-.1-1.1-.6-2.2-1.1-3.2-1.6zm6.6 1.3c-1-.2-2-.5-2.9-.8.7.8 1.7 1 2.9.8-.1.1 0 0 0 0zM99 61.3c.8-.2 1.6-.4 2.3-.8 0 0 .1-.1 0-.1-.6 0-1.3.2-1.9.4-.7.2-1.5.3-2.1.7 0 0-.1.1 0 .1.6.2 1.2-.2 1.7-.3zm-5.2-.2c.4.1.8-.3 1.2-.4.7-.3 1.3-.6 2-.8.1 0 .3-.2.1-.2-.6 0-1.1.3-1.6.5-.6.1-1.2.3-1.7.9 0-.1 0-.1 0 0zm-2.5-.8c.3 0 .7-.4.9-.5.4-.3 1-.5 1.5-.6.1 0 .3-.2.1-.2-.5-.1-1 .1-1.4.4-.3 0-1.2.5-1.1.9zm-.4-1.9c-.7 0-1.3.1-1.8.5-.2.1-.3.4 0 .3.6-.3 1.2-.6 1.8-.8 0 0 .1 0 0 0zm-6.4-1.1c1-.8 1.9-1.7 3-2.5.4-.3.8-.5 1.2-.8.4.3 1 .3 1.4.4.5.1 1 .1 1.5 0l.1-.1c-.3-.2-.7-.2-1-.3-.6-.1-1.3-.1-1.9 0 .7-.4 1.5-.8 2.2-1.1 1.2-.5 2.5-1 3.8-1.3 1-.3 2.1-.4 3-.9 0 0 .1-.1 0-.1-1-.1-2.2.3-3.2.6-1.1.3-2.1.7-3.1 1.1.3-.2.5-.4.8-.6.3-.2.7-.4.9-.8v-.1c-.3-.1-.8.4-1 .6-.3.2-.7.5-.9.9-.3.1-.6.2-.9.4-1.2.5-2.3 1.2-3.3 1.9s-2.1 1.5-2.7 2.5c-.1.2 0 .2.1.2z"/>
    <path d="M85.3 56.1c.7-1.3 1.1-2.6 2.2-3.7 1.1-1.2 2.5-2 4-2.4 1.3-.4 2.6-.5 3.9-.5 1.2.1 2.4.6 3.6.3-1.5 1.5-2.4 3.5-4.2 4.7-1.1.8-2.4 1.1-3.7 1.4-1.6.3-3.5 0-5 .7-.1 0-.3.3-.1.3 1 0 2-.2 3.1-.3.8 0 1.5-.1 2.3-.3 1.3-.2 2.4-.7 3.5-1.4.9-.6 1.7-1.5 2.3-2.3.7-.9 1.6-1.9 2.1-2.9.1-.1.5-.5.1-.4-1.1.3-1.9 0-2.9-.1-.8-.1-1.6-.1-2.3-.1-1.4.1-2.7.4-4 1-1.2.5-2.2 1.3-3.1 2.3-.9.9-2.1 2.6-2.1 3.9 0-.1.2-.2.3-.2z"/>
    <path d="M93.8 53c-.2-.3-.7-.3-1.1-.3-.5 0-.9.1-1.4.3.3.1.7.1 1.1.1.5 0 .9.1 1.4-.1-.1.1 0 .1 0 0zm-3.9-1.6c-.2.3-.3.6-.5.9-.1.2-.3.4-.4.6 0 .1.1 0 .1 0 .3-.2.5-.4.7-.8.1-.1.2-.3.2-.4.1-.2.1-.2 0-.4 0 0-.1 0-.1.1z"/>
  </g>
  <g fill="#D6B24D">
    <path d="M67.6 87.7c.1.1.2.3.3.5.1.2.1.5.4.3.8-.3.1-1.7-.5-1.8-.7-.2-1.4.4-1.9.8-.7.6-1.4 1.3-2 2-1.7 2-3.3 4.2-5.1 6.2-.6.7-1.2 1.3-1.8 1.9-.5.5-1 1-.9 1.7.1 1.4 1.6 2.2 2.8 1.7 1.1-.4 1.9-1.4 2.5-2.3.9-1.2 1.9-2.4 2.8-3.6 1-1.3 2-2.6 2.9-4 .2-.3.5-.7.7-1 .2-.3.5-.6.7-1 .2-.5-.6-.4-.7-.1-.6 1.1-3.6 5-5.5 7.5 0-.1-.1-.2-.2-.3-.1-.2-.3-.3-.5-.4-.1 0-.3-.1-.3.1-.1.2.2.2.2.3.2.1.3.3.5.4l.1.1c-.1.2-.3.3-.4.5-.1-.1-.2-.3-.2-.4-.2-.2-.4-.4-.6-.4-.1 0-.4-.1-.4.1-.1.2.1.2.2.3.2.2.5.4.7.6l.1.1c-.1.2-.2.3-.3.4 0 .1-.1.1-.1.2 0-.2-.3-.5-.5-.6-.1 0-.3-.1-.4 0-.1.1.1.4.1.3.2.2.3.3.4.6-.1.2-.3.3-.4.5v-.2c-.1-.3-.2-.6-.5-.7-.1 0-.3-.1-.3 0-.1.1 0 .2.1.3.2.2.3.4.4.6l.1.1c-.4.4-.9.8-1.4 1-.5.2-1 .1-1.3-.3-.3-.3-.9-1.3.1-1.3.3 0 .5.1.7.4 0 0 .2.3.2.4 0 .2-.2.2-.4.2-.1 0-.3-.1-.4-.1-.2 0 .2.4.3.4.4.2.8.1.9-.3.2-.7-.6-1.4-1.3-1.3 0 0-.2 0-.3.1.5-.7 1.2-1.3 1.8-1.9 1.1-1.1 2-2.4 3-3.7.9-1.1 1.8-2.1 2.7-3.2.6-.7 1.2-1.5 2-1.8.3-.1.6-.2.9.1z"/>
    <path d="M65.7 90c-.5.5-.9 1.1-1.3 1.6-.5.5-.9 1-1.3 1.6-.2.3-.6.8-.6 1.2 0 .3.4-.2.4-.2.1-.1.1-.2.2-.3 0-.1.3-.3.3-.3.1-.1.2-.3.3-.4.7-.9 1.4-1.6 2-2.6.1-.1.2-.3.2-.5 0-.1 0-.3-.2-.1zm-6.8 4.3c.1-.1.4-.4.5-.4l1.5-1.5c.2-.2.4-.4.4-.6.1-.3-.2-.1-.4-.1-.4.2-.8.6-1.1.9-.3.3-1.1.9-1.2.9-1.2 1.1-2.4 2.3-3.9 3.1-.6.3-1.3.6-1.9.2-.3-.2-.5-.5-.5-.8 0-.2.1-.3.1-.4.2-.2.7-.3.8-.3.2 0 .3 0 .4.1.2.2.1.4 0 .7-.1.1-.2.1-.3.1-.1-.1-.3-.2-.4-.2-.2 0 .2.4.2.5.5.5 1-.2 1.1-.6.1-.4-.3-.9-.7-1-.2-.1-.5 0-.7.1 0 0-.1.1-.3.1l.1-.1c.3-.3.6-.5 1-.8l1.2-.9c.7-.6 1.5-1.2 2.3-1.7 1.5-1.1 6-4.7 6.8-5.2.3-.2.7-.4 1-.2.5.2.2.8.5 1.1.1.1.4.2.5 0 .2-.2.1-.7 0-.9-.2-.6-.6-1-1.2-1.2-.6-.1-1.2.3-1.7.6-.5.4-.9.8-1.4 1.2-1.4 1.2-2.9 2.3-4.4 3.4-1.4 1-2.7 2-4.1 3-.5.4-1.1.8-1.4 1.3-.3.6-.3 1.2 0 1.7.2.5.6 1 1.2 1.3.5.2 1 .2 1.4 0 1.3-.4 2.3-1.3 3.2-2.2.6-.4 1-.8 1.4-1.2z"/>
    <path d="M58.2 92.1c-.6.4-1.4 1.3-2.2 1.8-.3.2-.7.5-1 .8-.2.3.8-.1 1.3-.5.8-.5 1.4-1.2 2.1-1.8l.5-.5c.1-.1.4-.3.3-.4 0-.1-.9.5-1 .6zm3.6-2.5c-.2.3.2.6.4.3s-.2-.6-.4-.3zm-1.6.6c-.2.3.2.6.4.3.3-.4-.2-.6-.4-.3zm2.5-2.1c-.2.3.2.6.4.3.3-.3-.2-.6-.4-.3zm3.7.7c-.2.3.2.6.4.3.2-.4-.3-.6-.4-.3z"/>
  </g>
  <path fill="#FFF" d="M179.1 60.7c1.5.7 2.6 1.5 3.2 2.5.7 1 1 2.1 1 3.2 0 1.6-.4 3-1.3 4.2s-2.1 2-3.8 2.6c-1.6.6-3.6.9-5.8.9-.6 0-1.5 0-2.9-.1-1.4 0-2.8-.1-4.1-.1-2.7 0-4.8 0-6.1.1v-.8c.9 0 1.5-.1 1.9-.3.4-.2.7-.5.8-.9.1-.5.2-1.2.2-2.2V50.3c0-1-.1-1.7-.2-2.2-.1-.5-.4-.8-.8-.9-.4-.2-1-.3-1.9-.3v-.8c1.3.1 3.3.1 6 .1h6.2c2.1 0 3.9.3 5.4.8 1.5.5 2.6 1.3 3.3 2.2.7.9 1.1 2 1.1 3.3 0 1-.3 1.9-.9 2.9-.6.9-1.4 1.8-2.6 2.5-1.2.7-2.7 1.3-4.4 1.6v.1c2.3 0 4.2.4 5.7 1.1zm-5.3-3.2c.7-1.2 1-2.7 1-4.7s-.3-3.5-.9-4.4c-.6-1-1.6-1.5-3-1.5-.7 0-1.2.1-1.6.3-.3.2-.6.5-.7 1-.1.5-.2 1.2-.2 2.1v9h1.7c1.8 0 3-.6 3.7-1.8zm-5.1 14.6c.1.5.4.8.8.9.4.2 1 .3 1.8.3 3.7 0 5.5-2.3 5.5-6.9 0-2.1-.5-3.7-1.6-4.7-1.1-1.1-2.7-1.6-5-1.6h-1.7v10c0 .8.1 1.5.2 2zm27.7-24.9c-.4.2-.7.5-.8.9-.1.5-.2 1.2-.2 2.2V70c0 1 .1 1.7.2 2.2.1.5.4.8.8.9.4.2 1 .3 1.9.3v.8c-1.4-.1-3.4-.1-6-.1-2.8 0-4.9 0-6.2.1v-.8c.9 0 1.5-.1 1.9-.3.4-.2.7-.5.8-.9.1-.5.2-1.2.2-2.2V50.3c0-1-.1-1.7-.2-2.2-.1-.5-.4-.8-.8-.9-.4-.2-1-.3-1.9-.3v-.8c1.3.1 3.4.1 6.2.1 2.6 0 4.6 0 6-.1v.8c-.8.1-1.5.2-1.9.3zm29.5 27c-.8.4-1.8.5-2.9.5-1.5 0-2.7-.3-3.6-1-.9-.6-1.5-1.8-1.7-3.3l-.7-3.9c-.2-1.3-.5-2.3-.7-3.1-.3-.8-.6-1.4-1.1-1.9-.5-.5-1.1-.7-1.9-.7h-2.6V70c0 1 .1 1.7.2 2.2.1.5.4.8.8.9.4.2 1 .3 1.9.3v.8c-1.4-.1-3.4-.1-6-.1-2.8 0-4.9 0-6.2.1v-.8c.9 0 1.5-.1 1.9-.3.4-.2.7-.5.8-.9.1-.5.2-1.2.2-2.2V50.3c0-1-.1-1.7-.2-2.2-.1-.5-.4-.8-.8-.9-.4-.2-1-.3-1.9-.3v-.8c1.3.1 3.3.1 6 .1h6.2c3.6 0 6.4.6 8.2 1.8 1.8 1.2 2.8 2.9 2.8 5.1 0 1.2-.3 2.3-.8 3.3-.6 1.1-1.5 2-2.8 2.8-1.3.8-3.1 1.3-5.3 1.6 1.6.1 2.9.4 3.9.8s1.8 1 2.4 1.7c.6.7 1 1.6 1.2 2.7l.9 4.1c.2 1.1.5 1.8.7 2.2.3.4.7.6 1.2.6.3 0 .6-.1.8-.2.2-.1.5-.4.8-.7l.5.5c-.6.7-1.3 1.3-2.2 1.7zm-10.1-15c.8-.6 1.4-1.3 1.7-2.3.3-1 .5-2.1.5-3.4 0-2.2-.4-3.8-1.2-4.9-.8-1.1-2-1.7-3.8-1.7-.7 0-1.2.1-1.6.3-.3.2-.6.5-.7 1-.1.5-.2 1.2-.2 2.1V60h1.7c1.7.1 2.8-.2 3.6-.8zm32-13c1.2 0 2.2 0 3-.1v.8c-.6.3-1.2.7-1.8 1.5-.6.7-1.3 1.8-2 3.1l-4.7 9.3V70c0 1 .1 1.7.2 2.2.1.5.4.8.8.9.4.2 1 .3 1.9.3v.8c-1.4-.1-3.5-.1-6.1-.1-2.8 0-4.9 0-6.1.1v-.8c.9 0 1.5-.1 1.9-.3.4-.2.7-.5.8-.9.1-.5.2-1.2.2-2.2v-6.7l-7.7-14.1c-.8-1.5-1.6-2.2-2.3-2.2v-.8c1.1.1 2.7.2 4.7.2 2.5 0 5-.1 7.4-.2v.8c-.9 0-1.7.1-2.2.2-.5.2-.8.5-.8.9 0 .3.1.6.3.9l6 11.6 3.1-6.2c1-2.1 1.6-3.7 1.6-4.9 0-.9-.3-1.5-.9-2-.6-.4-1.4-.6-2.5-.7V46c2.1.2 3.7.2 5.2.2zm26.8 26.5c.4.4.9.6 1.3.6v.8c-1.6-.1-3.6-.1-6-.1-2.7 0-4.7 0-6 .1v-.8c1 0 1.7-.2 2.1-.4.4-.2.6-.6.6-1.1 0-.4-.2-1-.5-1.9l-2.4-6.5h-8.6l-1 2.7c-.7 1.9-1.1 3.3-1.1 4.4 0 1 .3 1.7.9 2s1.5.6 2.6.6v.8c-1.8-.1-3.4-.1-4.9-.1-1.2 0-2.2 0-3 .1v-.8c1.3-.2 2.4-1.6 3.4-4.2l9-23.2c.4 0 .9.1 1.4.1.5 0 1 0 1.4-.1l9.6 24.8c.4 1.2.8 1.8 1.2 2.2zm-15-20.6l-4.1 10.7h8l-3.9-10.7zm41.2-4.5c-.4.3-.7.8-.8 1.5-.1.7-.2 1.7-.2 3v22.1h-2.1l-17.2-21.8v15.2c0 1.6.1 2.7.3 3.4.2.7.5 1.3 1 1.6.5.3 1.4.6 2.6.7v.8c-1-.1-2.4-.1-4.3-.1-1.5 0-2.6 0-3.4.1v-.8c.9-.1 1.5-.3 1.9-.7.4-.3.7-.8.8-1.5s.2-1.7.2-3V50.3c0-1-.1-1.7-.2-2.2s-.4-.8-.8-.9c-.4-.2-1-.3-1.9-.3v-.8c.8.1 2 .1 3.4.1 1.3 0 2.5 0 3.4-.1L298.8 65V52.6c0-1.6-.1-2.7-.3-3.4-.2-.7-.5-1.3-1-1.6-.5-.3-1.4-.6-2.6-.7v-.8c1 .1 2.4.1 4.3.1 1.5 0 2.6 0 3.4-.1v.8c-.8.1-1.4.4-1.8.7zm15.1-.4c-.4.2-.7.5-.8.9s-.2 1.2-.2 2.2V70c0 1 .1 1.7.2 2.2.1.5.4.8.8.9.4.2 1 .3 1.9.3v.8c-1.4-.1-3.4-.1-6-.1-2.8 0-4.9 0-6.2.1v-.8c.9 0 1.5-.1 1.9-.3.4-.2.7-.5.8-.9.1-.5.2-1.2.2-2.2V50.3c0-1-.1-1.7-.2-2.2-.1-.5-.4-.8-.8-.9-.4-.2-1-.3-1.9-.3v-.8c1.3.1 3.4.1 6.2.1 2.6 0 4.6 0 6-.1v.8c-.9.1-1.5.2-1.9.3zM182.6 93.8c-.4.3-.7.8-.8 1.5-.1.7-.2 1.7-.2 3v10.5c0 3.8-.5 6.6-1.6 8.4-.7 1.2-1.8 2.1-3.1 2.7-1.3.6-3 1-4.9 1-3 0-5.4-.7-7.1-2-.8-.7-1.5-1.5-1.9-2.3-.4-.9-.7-1.9-.9-3.1s-.2-2.7-.2-4.5V96.6c0-1-.1-1.7-.2-2.2-.1-.5-.4-.8-.8-.9-.4-.2-1-.3-1.9-.3v-.8c1.4.1 3.4.1 6.2.1 2.7 0 4.8 0 6.3-.1v.8c-1 0-1.6.1-2.1.3-.4.2-.7.5-.9.9s-.2 1.2-.2 2.2v14.9c0 1.9.2 3.4.5 4.5.3 1.2.9 2 1.7 2.6.8.6 1.9.9 3.3.9 2.6 0 4.5-.9 5.6-2.7 1.1-1.8 1.6-4.3 1.6-7.6V98.9c0-1.5-.1-2.7-.3-3.4-.2-.7-.5-1.3-1.1-1.6-.5-.3-1.4-.6-2.5-.7v-.8c1 .1 2.4.1 4.3.1 1.5 0 2.6 0 3.4-.1v.8c-1.2.1-1.8.3-2.2.6zm28.5 0c-.4.3-.7.8-.8 1.5-.1.7-.2 1.7-.2 3v22.1H208l-17.2-21.8v15.2c0 1.6.1 2.7.3 3.4s.5 1.3 1 1.6c.5.3 1.4.6 2.6.7v.8c-1-.1-2.4-.1-4.3-.1-1.5 0-2.6 0-3.4.1v-.8c.9-.1 1.5-.3 1.9-.7.4-.3.7-.8.8-1.5.1-.7.2-1.7.2-3V96.6c0-1-.1-1.7-.2-2.2-.1-.5-.4-.8-.8-.9-.4-.2-1-.3-1.9-.3v-.8c.8.1 2 .1 3.4.1 1.3 0 2.5 0 3.4-.1l15.3 18.9V98.9c0-1.6-.1-2.7-.3-3.4-.2-.7-.5-1.3-1-1.6-.5-.3-1.4-.6-2.6-.7v-.8c1 .1 2.4.1 4.3.1 1.5 0 2.6 0 3.4-.1v.8c-.8.1-1.4.3-1.8.6zm15.1-.3c-.4.2-.7.5-.8.9s-.2 1.2-.2 2.2v19.6c0 1 .1 1.7.2 2.2s.4.8.8.9c.4.2 1 .3 1.9.3v.8c-1.4-.1-3.4-.1-6-.1-2.8 0-4.9 0-6.2.1v-.8c.9 0 1.5-.1 1.9-.3.4-.2.7-.5.8-.9.1-.5.2-1.2.2-2.2V96.6c0-1-.1-1.7-.2-2.2-.1-.5-.4-.8-.8-.9-.4-.2-1-.3-1.9-.3v-.8c1.3.1 3.4.1 6.2.1 2.6 0 4.6 0 6-.1v.8c-.9 0-1.5.1-1.9.3zm27.5-1c1.2 0 2.2 0 3-.1v.8c-.7.3-1.3.8-2 1.5-.6.8-1.2 1.8-1.7 3.2l-8.4 22.6h-2.7l-10.1-24.8c-.3-.9-.7-1.5-1.2-1.9-.4-.4-.9-.6-1.3-.6v-.8c1.6.1 3.6.1 6 .1 2.7 0 4.7 0 6-.1v.8c-1 0-1.7.2-2.1.4-.4.2-.6.6-.6 1.1 0 .4.2 1 .5 1.9l7 17.7 4.9-13.1c.7-2.1 1.1-3.7 1.1-4.8 0-1.1-.3-1.8-.8-2.3s-1.4-.7-2.5-.8v-.8h4.9zm26 21.9c0 2.4.1 4.4.3 6-1.8-.1-4.8-.1-9.1-.1-5.7 0-10 0-12.9.1v-.8c.9 0 1.5-.1 1.9-.3.4-.2.7-.5.8-.9.1-.5.2-1.2.2-2.2V96.6c0-1-.1-1.7-.2-2.2-.1-.5-.4-.8-.8-.9-.4-.2-1-.3-1.9-.3v-.8c2.8.1 7.1.1 12.9.1 3.9 0 6.6 0 8.3-.1-.2 2.2-.3 4.1-.3 5.9 0 1.2 0 2.1.1 2.7h-.9c-.3-1.9-.7-3.4-1.2-4.5-.6-1.1-1.3-1.9-2.1-2.4-.9-.5-1.9-.7-3.2-.7H270c-.8 0-1.4.1-1.8.2-.4.1-.6.4-.7.8s-.2 1-.2 1.8v9.8h1.3c1.4 0 2.5-.5 3.2-1.5.7-1 1.2-2.3 1.5-3.7h.9c-.1 1.3-.1 2.5-.1 3.7v1.9c0 1.3.1 3.2.2 5.6h-.9c-.5-3.5-2.1-5.2-4.8-5.2h-1.3v10c0 .9.1 1.5.2 1.8s.4.6.7.8c.4.1 1 .2 1.8.2h2c1.9 0 3.4-.6 4.5-1.9 1.2-1.3 2-3.5 2.4-6.5h.9c0 .7-.1 1.9-.1 3.2zm28.4 6c-.8.4-1.8.5-2.9.5-1.5 0-2.7-.3-3.6-1-.9-.6-1.5-1.8-1.7-3.3l-.7-3.9c-.2-1.3-.5-2.3-.7-3.1-.3-.8-.6-1.4-1.1-1.9-.5-.5-1.1-.7-1.9-.7h-2.6v9.1c0 1 .1 1.7.2 2.2s.4.8.8.9c.4.2 1 .3 1.9.3v.8c-1.4-.1-3.4-.1-6-.1-2.8 0-4.9 0-6.2.1v-.8c.9 0 1.5-.1 1.9-.3.4-.2.7-.5.8-.9.1-.5.2-1.2.2-2.2V96.6c0-1-.1-1.7-.2-2.2-.1-.5-.4-.8-.8-.9-.4-.2-1-.3-1.9-.3v-.8c1.3.1 3.3.1 6 .1h6.2c3.6 0 6.4.6 8.2 1.8 1.8 1.2 2.8 2.9 2.8 5.1 0 1.2-.3 2.3-.8 3.3-.6 1.1-1.5 2-2.8 2.8-1.3.8-3.1 1.3-5.3 1.6 1.6.1 2.9.4 3.9.8s1.8 1 2.4 1.7c.6.7 1 1.6 1.2 2.7l.9 4.1c.2 1.1.5 1.8.7 2.2.3.4.7.6 1.2.6.3 0 .6-.1.8-.2.2-.1.5-.4.8-.7l.5.5c-.7.7-1.4 1.3-2.2 1.6zM298 105.5c.8-.6 1.4-1.3 1.7-2.3.3-1 .5-2.1.5-3.4 0-2.2-.4-3.8-1.2-4.9-.8-1.1-2-1.7-3.8-1.7-.7 0-1.2.1-1.6.3-.3.2-.6.5-.7 1-.1.5-.2 1.2-.2 2.1v9.7h1.7c1.6 0 2.7-.3 3.6-.8zm17.2 11.7c1.1 1.8 2.9 2.8 5.2 2.8.9 0 1.8-.2 2.5-.5s1.3-.8 1.8-1.5c.4-.7.6-1.5.6-2.4 0-1-.2-2-.7-2.8-.5-.8-1.1-1.6-2-2.2-.8-.7-1.9-1.5-3.3-2.3-1.6-1-2.9-1.9-3.8-2.7-.9-.8-1.7-1.7-2.3-2.7s-.9-2.3-.9-3.6c0-1.6.4-2.9 1.2-4 .8-1.1 1.9-1.9 3.2-2.4s2.8-.8 4.4-.8c1 0 1.8.1 2.5.2s1.3.3 1.8.5 1 .5 1.5.8c.6.4 1.1.6 1.3.6.2 0 .4-.1.6-.4.1-.3.2-.7.3-1.3h.9c-.1 1.8-.2 4.8-.2 9h-.8c-.1-1.4-.4-2.8-1-4.1-.5-1.3-1.3-2.3-2.3-3.1-1-.8-2.1-1.2-3.5-1.2-.8 0-1.6.2-2.3.5s-1.2.8-1.5 1.4c-.4.6-.6 1.3-.6 2.1 0 1.3.4 2.4 1.2 3.2s1.8 1.7 3.1 2.5c1.3.9 2.1 1.4 2.6 1.7 1.5 1 2.8 1.9 3.7 2.7.9.8 1.6 1.6 2.2 2.7.6 1 .9 2.2.9 3.5 0 1.7-.4 3.1-1.3 4.3-.9 1.2-2.1 2-3.5 2.6-1.5.6-3.1.9-5 .9-1.5 0-2.7-.1-3.7-.4-1-.3-1.9-.6-2.7-1.1-.6-.4-1-.6-1.3-.6-.2 0-.4.1-.6.4-.1.3-.2.7-.3 1.3h-.9c.1-1.6.2-5.2.2-10.7h.9c.1 2.9.7 5.2 1.9 7.1zm29.9-23.7c-.4.2-.7.5-.8.9s-.2 1.2-.2 2.2v19.6c0 1 .1 1.7.2 2.2s.4.8.8.9c.4.2 1 .3 1.9.3v.8c-1.4-.1-3.4-.1-6-.1-2.8 0-4.9 0-6.2.1v-.8c.9 0 1.5-.1 1.9-.3.4-.2.7-.5.8-.9.1-.5.2-1.2.2-2.2V96.6c0-1-.1-1.7-.2-2.2-.1-.5-.4-.8-.8-.9-.4-.2-1-.3-1.9-.3v-.8c1.3.1 3.4.1 6.2.1 2.6 0 4.6 0 6-.1v.8c-.8 0-1.5.1-1.9.3zm5 5.6c0-1.8-.1-4-.3-6.7 2.4.1 6.5.1 12.2.1s9.8 0 12.2-.1c-.2 2.7-.3 4.9-.3 6.7 0 1.1 0 2.1.1 3h-.9c-.4-2.2-1-3.9-1.6-5.2-.6-1.3-1.4-2.2-2.3-2.8s-2-.8-3.2-.8h-.9v22.6c0 1.1.1 1.9.3 2.4s.6.8 1.2 1c.6.2 1.5.3 2.7.3v.8c-3.3-.1-5.8-.1-7.5-.1-1.7 0-4.1 0-7.3.1v-.8c1.2 0 2.1-.1 2.7-.3.6-.2 1-.5 1.2-1 .2-.5.3-1.3.3-2.4V93.3h-.7c-1.3 0-2.4.3-3.2.8-.9.6-1.6 1.5-2.3 2.8-.6 1.3-1.2 3-1.6 5.2h-.9c0-.8.1-1.8.1-3zm47-6.6c1.2 0 2.2 0 3-.1v.8c-.6.3-1.2.7-1.8 1.5-.6.7-1.3 1.8-2 3.1l-4.7 9.3v9.2c0 1 .1 1.7.2 2.2s.4.8.8.9c.4.2 1 .3 1.9.3v.8c-1.4-.1-3.5-.1-6.1-.1-2.8 0-4.9 0-6.1.1v-.8c.9 0 1.5-.1 1.9-.3.4-.2.7-.5.8-.9.1-.5.2-1.2.2-2.2v-6.7l-7.7-14.1c-.8-1.5-1.6-2.2-2.3-2.2v-.8c1.1.1 2.7.2 4.7.2 2.5 0 5-.1 7.4-.2v.8c-.9 0-1.7.1-2.2.2-.5.2-.8.5-.8.9 0 .3.1.6.3.9l6 11.6 3.1-6.2c1-2.1 1.6-3.7 1.6-4.9 0-.9-.3-1.5-.9-2-.6-.4-1.4-.6-2.5-.7v-.8c2 .1 3.6.2 5.2.2z"/>
</svg>
