<svg xmlns="http://www.w3.org/2000/svg" viewBox="0 0 500 500">
  <g fill="#FFF">
    <path d="M184.5 361.7c0-20.1-19.1-28.9 1.5-55.7 15-19.1 5.2-36.1 16.5-5.2 10.3 27.3 8.8 45.9-16 63.5-1 .5-2-1.1-2-2.6zm-38.7-23.8c.5-20.1-17.5-29.9 4.1-55.7 15.5-18.6 6.2-35.6 16.5-4.6 9.3 27.9 7.2 46.4-18.6 62.9-1.5.5-2-1-2-2.6zm-34.6-37.1c4.1-19.6-11.9-32.5 14.4-53.7 18.6-15.5 12.9-34.1 17-1.5 3.6 29.4-2.1 46.9-30.4 58.3-1 0-1.5-1.6-1-3.1zm-26.3-37.7c5.2-19.6-10.3-33 16.5-53.1 19.6-14.4 14.4-33 17-1 3.1 29.4-3.6 46.9-32 57.3-1.5-.1-2-1.6-1.5-3.2zm-15.5-50c5.7-17-7.7-29.9 17.5-46.9 18.1-11.9 14.4-28.9 15.5 0 .5 16.5-.5 39.7-21.7 44.9-5.6 1.5-13.3 8.2-11.3 2zm-10.3-45.9c6.2-16-5.2-28.9 20.1-42.8 18.1-10.3 16-26.3 14.4 1-.5 15.5-3.6 37.1-23.7 40.8-6.2 1-13.4 6.6-10.8 1zm2.6-54.7c5.7-13.4-3.6-24.8 18.1-36.1 16-8.3 14.4-22.2 12.4 1.5-2.1 27.3-9.9 33-30.5 34.6zm-1-27.4c0-14.4-13.4-21.2 2.1-40.2 10.8-13.9 4.1-25.8 11.9-3.6 9.2 26.3 4 34.5-14 43.8z"/>
    <path d="M85.4 266.7c8.8 17 21.7 33.5 33.5 48 67.6 82.5 128.5 40.8 129 63.5 0 7.7-54.2 7.7-91.3-19.6C81.8 304.4 32.8 187.8 58.1 97.5c5.2-19.6-4.1 27.9-3.1 67.6 1.5 42.3 22.7 85.6 30.4 101.6zm89.3 110.4c-19.1-5.2-23.7-25.3-54.7-11.4-21.7 9.8-35.6-3.6-8.8 15 24.8 16.5 42.8 19.1 65.5-1 1.1-1 0-2-2-2.6z"/>
    <path d="M100.9 307.5c-17.5-9.3-17.5-29.9-50.6-23.2-23.7 5.2-34.6-10.8-11.9 12.4 20.1 21.7 37.7 28.4 64 13.9 1.1-1 .6-2.6-1.5-3.1zm34 38.7c-18.6-7.7-19.6-28.4-52.1-19.1-23.2 6.7-35.1-8.8-11.4 13.4 22.2 19.6 39.7 25.3 65 8.3 1.1-1.1.6-2.1-1.5-2.6zm-57.7-79.5c-14.4-11.9-10.3-31-41.8-31-22.7-.4-29.4-17.5-13.4 8.8 8.8 14.4 22.7 33.5 43.9 26.8 6.1-2 16.4-.4 11.3-4.6zm-20.2-50c-11.4-12.4-5.2-28.4-33-33-20.1-3.6-23.7-19.6-13.4 6.2 5.7 13.9 16 33 35.6 29.4 6.7-1.1 15 2 10.8-2.6zm-8.7-47.5c-5.2-14.4 6.2-25.8-15.5-40.2-16-10.3-12.9-24.8-13.4.5-.5 15 1.5 33.5 19.1 38.2 5.6 1 11.3 6.7 9.8 1.5zm3.6-56.2c-2.1-13.9 9.8-22.2-7.7-38.7-13-11.4-7.8-24.3-11.9-1.6-5.7 26.4.5 33.6 19.6 40.3zm261.6 251.2c-24.8-17.5-26.3-36.1-16-63.5 11.4-31 1.5-13.9 16.5 5.2 20.6 26.8 1.5 35.6 1.5 55.7 0 1.6-1 3.2-2 2.6zm38.7-23.7c-25.8-16.5-27.9-35.1-18.6-62.9 10.3-31 1-13.9 16.5 4.6 21.7 25.8 3.6 35.6 4.1 55.7 0 1.6-.5 3.1-2 2.6zm35.6-36.6c-28.4-11.4-34.1-28.9-30.4-58.3 4.1-32.5-1.5-13.9 17 1.5 26.3 21.2 10.3 34.1 14.4 53.7.5 1.5 0 3.1-1 3.1zm25.8-37.7c-28.4-10.3-35.1-27.9-32-57.3 2.6-32-2.6-13.4 17 1 26.8 20.1 11.4 33.5 16.5 53.1.5 1.7 0 3.2-1.5 3.2zm5.6-55.2c-21.2-5.2-22.2-28.4-21.7-44.9 1-28.9-2.6-11.9 15.5 0 25.3 17 11.9 29.9 17.5 46.9 2.1 6.3-5.6-.4-11.3-2zm10.9-44.9c-20.1-3.6-23.2-25.3-23.7-40.8-1.5-27.3-3.6-11.4 14.4-1 25.3 13.9 13.9 26.8 20.1 42.8 2.6 5.7-4.6.1-10.8-1zm-22.2-88.2c-2.1-23.7-3.6-9.8 12.4-1.5 21.7 11.4 12.4 22.7 18.1 36.1-20.7-1.6-28.5-7.3-30.5-34.6zm17.5-36.6c7.7-22.2 1-10.3 11.9 3.6 15.5 19.1 2.1 25.8 2.1 40.2-18.1-9.3-23.3-17.5-14-43.8z"/>
    <path d="M445 165.1c1-39.7-8.3-87.2-3.1-67.6 25.3 90.3-23.7 206.9-98.5 261.1-37.1 27.3-91.3 27.3-91.3 19.6.5-22.7 61.4 19.1 129-63.5 11.9-14.4 24.8-31 33.5-48 7.7-16 28.9-59.3 30.4-101.6zM323.3 379.7c22.7 20.1 40.8 17.5 65.5 1 26.8-18.6 12.9-5.2-8.8-15-31-13.9-35.6 6.2-54.7 11.4-2 .6-3.1 1.6-2 2.6z"/>
    <path d="M397.6 310.6c26.3 14.4 43.9 7.7 64-13.9 22.7-23.2 11.9-7.2-11.9-12.4-33-6.7-33 13.9-50.6 23.2-2.1.5-2.6 2.1-1.5 3.1zm-34.1 38.2c25.3 17 42.8 11.4 65-8.3 23.7-22.2 11.9-6.7-11.4-13.4-32.5-9.3-33.5 11.4-52.1 19.1-2 .5-2.5 1.5-1.5 2.6zm70.7-77.4c21.2 6.7 35.1-12.4 43.9-26.8 16-26.3 9.3-9.3-13.4-8.8-31.5 0-27.3 19.1-41.8 31-5.2 4.1 5.1 2.5 11.3 4.6zm19.6-52.1c19.6 3.6 29.9-15.5 35.6-29.4 10.3-25.8 6.7-9.8-13.4-6.2-27.9 4.6-21.7 20.6-33 33-4.2 4.6 4.1 1.5 10.8 2.6zm7.7-51.6c17.5-4.6 19.6-23.2 19.1-38.2-.5-25.3 2.6-10.8-13.4-.5-21.7 14.4-10.3 25.8-15.5 40.2-1.5 5.2 4.2-.5 9.8-1.5zm6.2-95c-4.1-22.7 1-9.8-11.9 1.5-17.5 16.5-5.7 24.8-7.7 38.7 19.1-6.6 25.3-13.8 19.6-40.2z"/>
  </g>
  <path fill="#FFF" d="M250 70.8l-41.4 35.9-45.9 23.4-56.6 15.5-28.3 4.8 5.4 57.3 15.7 76.2 20.7 60.7 37.7 60 39.8 34.4 27 14.8 25.9 12.8 32.1-12.8 29.7-19.6 29.6-33 33.1-44.2 22.9-61.7 12.1-42.4 8.8-51.3 2.7-35.1v-20.9l-34.8-.6-22.5-6.8-29-6.7-43.8-23L268.6 87"/>
  <path fill="#D6B24D" d="M250 471.1c185.1-60.3 175.9-328.3 175.9-328.3C306.2 139.6 250 58.7 250 58.7s-56.2 80.9-175.9 84.1c0-.1-9.2 268 175.9 328.3zM84.3 152.5C176.7 146.8 230.5 97 250 74.9c19.5 22.1 73.3 71.9 165.8 77.6-.2 20.8-2.6 73.3-18.3 129.5-26.3 93.8-75.9 153.7-147.4 178.3-71.6-24.6-121.2-84.7-147.5-178.8-15.8-56.1-18.1-108.3-18.3-129z"/>
  <path fill="#D6B24D" d="M250 453.8c68.4-24.3 116-82.6 141.5-173.4 14.3-51 17.4-99.1 18-122.2-85-7-137.3-50.8-159.5-74.2-22.2 23.4-74.5 67.2-159.5 74.2.6 22.9 3.6 70.8 17.9 121.7C133.8 371 181.5 429.5 250 453.8zM94.7 161.9c79.9-7.7 130.6-47 155.3-72.1 24.7 25 75.4 64.4 155.3 72.1-.8 24.7-4.4 69.7-17.7 117.4-25 88.9-71.2 146.1-137.6 170.2-66.5-24.1-112.8-81.5-137.7-170.7-13.3-47.6-16.8-92.3-17.6-116.9z"/>
  <path fill="#D6B24D" d="M250 268.9v176.2c64.3-23.9 109.2-80.1 133.7-167 .9-3.1 1.7-6.2 2.5-9.3H250zm0-173.3c-24.4 23.9-74.2 61.5-151.1 70 .9 22.2 4.2 61.2 15 103.3H250V95.6z"/>
  <path fill="#FFF" d="M332.3 319.2c-.3-1.2-1.7-1.4-2.8-1.5-.4-.1-.7-.1-1-.2-.2-.1-.4-.1-.6-.2-1.8-.5-6-1.5-8.8-1-.7.2-1.7.5-2.6 1 .4-.5.8-.9 1.1-1.4 1.7-2.5 1.9-6.2 2.1-8.9.1-.6.1-1.2.1-1.7 0-.2.1-.6.2-.9.2-1 .5-2.3-.6-2.9-1-.6-2.1.2-3 .9l-.9.6c-.1.1-.3.2-.6.3-1.6.9-5.4 3.2-7 5.6-.4.6-.8 1.5-1.1 2.5 0-.7-.1-1.2-.2-1.7-.6-2.9-3-5.8-4.8-7.8-.4-.4-.7-.9-1-1.2-.2-.2-.3-.4-.5-.7-.6-.9-1.3-2-2.5-1.7-1.2.3-1.4 1.7-1.5 2.8-.1.4-.1.7-.2 1 0 .1-.1.4-.2.6-.5 1.8-1.5 6.1-1 8.8.2.7.5 1.7 1 2.6-.5-.4-.9-.8-1.4-1.1-2.5-1.7-6.2-1.9-8.9-2.1-.6-.1-1.2-.1-1.7-.1-.2 0-.6-.1-.9-.1-1-.2-2.3-.5-2.9.6-.6 1 .2 2.1.9 3l.6.9c.1.1.2.3.3.6.9 1.6 3.2 5.4 5.6 7 .6.4 1.5.8 2.6 1.1-.7 0-1.2.1-1.8.2-2.9.6-5.8 3-7.8 4.8-.4.4-.9.7-1.3 1-.1.1-.3.3-.6.4-.9.6-2 1.3-1.7 2.5.3 1.2 1.7 1.4 2.8 1.5.4.1.7.1 1 .1.1.1.4.1.6.2 1.5.4 4.5 1.2 7.1 1.2.6 0 1.2-.1 1.8-.2.7-.1 1.7-.5 2.6-1-.4.5-.8.9-1.1 1.4-1.7 2.5-1.9 6.2-2.1 8.9-.1.6-.1 1.2-.1 1.7 0 .2-.1.6-.1.9-.2 1-.5 2.3.6 2.9.2.1.5.2.7.2.8 0 1.6-.6 2.3-1.2.3-.2.6-.5.9-.6.1-.1.3-.2.6-.3 1.6-.9 5.4-3.2 6.9-5.6.4-.6.8-1.5 1.1-2.5 0 .7.1 1.2.2 1.7.6 2.9 3 5.8 4.8 7.8.4.4.7.9 1 1.2.2.2.3.4.5.7.5.7 1.1 1.7 2.1 1.7.1 0 .2 0 .4-.1 1.2-.3 1.4-1.7 1.5-2.8.1-.4.1-.7.1-1 .1-.2.1-.4.2-.6.5-1.8 1.5-6.1 1-8.8-.1-.7-.6-1.7-1-2.6.5.4.9.8 1.4 1.1 2.5 1.7 6.2 1.9 8.9 2.1.6.1 1.2.1 1.7.1.2 0 .6.1.9.2.4.1.9.2 1.4.2.6 0 1.2-.2 1.5-.8.6-1-.2-2.1-.9-3-.2-.3-.5-.6-.6-.9-.1-.1-.2-.3-.3-.6-.9-1.6-3.2-5.4-5.6-7-.6-.4-1.5-.8-2.5-1.1.7 0 1.2-.1 1.7-.2 2.9-.6 5.8-3 7.8-4.8.4-.4.9-.7 1.2-1 .2-.2.4-.3.7-.5.8-.2 2-1 1.7-2.2zm-23.3-9.3c1.4-2.1 5-4.3 6.6-5.2.2-.1.4-.2.6-.4.3-.2.6-.5.9-.7.5-.4 1.1-.9 1.5-.9.1 0 .1 0 .1.1.3.2.2.8 0 1.7-.1.3-.1.7-.2 1 0 .5 0 1.1-.1 1.7-.2 2.7-.4 6.1-1.9 8.3-1 1.6-3.7 3.6-6 5.2 2.2-2 4.7-4.4 5.5-6 1.5-3.4.8-6.1.7-8.5 0-.2-.2-.3-.4-.2-2.6 1.4-5.2 2.2-7.2 5.4-1.1 1.8-1.8 5-2.3 7.7.4-3.3 1-7.4 2.2-9.2zm6.8 20.8c1.4.5 4.9 2.6 3.9 4.4-1.2 2-4.5-.2-5.7-1.4-1.4-1.3-3.6-3.4-3.4-3.9.2-.3 3.2.2 5.2.9zm-4.2-6.1c-.1-.4 2.3-2.1 4.3-3 1.4-.6 5.3-1.7 5.8.3.6 2.3-3.4 3-5 3.1-1.9 0-5 .1-5.1-.4zm-3.1-4.4c-.4-.2.2-3.1.9-5.2.5-1.4 2.6-4.9 4.4-3.9 2 1.2-.2 4.5-1.4 5.7-1.3 1.4-3.5 3.7-3.9 3.4zm-11.2-16.8c.1-.2.1-.5.2-.7.1-.4.1-.8.2-1.2.1-.7.2-1.7.6-1.7.3 0 .7.5 1.1 1.2.2.2.4.6.6.8.3.4.7.8 1.1 1.3 1.8 2.1 4 4.6 4.5 7.2.4 1.9 0 5.2-.5 7.9.2-2.9.2-6.4-.4-8.2-1.3-3.4-3.7-4.8-5.5-6.6-.2-.1-.4-.1-.4.1-.9 2.8-2.1 5.3-1.3 8.8.5 2.1 2.2 4.8 3.8 7.1-2-2.5-4.4-5.8-4.8-7.9-.7-2.4.4-6.4.8-8.1zm5.9 15.9c-.4.1-2.1-2.3-3-4.3-.6-1.3-1.7-5.3.3-5.8 2.3-.6 3 3.4 3.1 5 .1 1.9.1 4.9-.4 5.1zm-3 17.9c-.5 1.4-2.6 4.9-4.4 3.9-2-1.2.2-4.5 1.4-5.7 1.3-1.4 3.4-3.6 3.9-3.4.3.2-.2 3.2-.9 5.2zm-11.6-15.3c-2.1-1.4-4.3-5-5.2-6.6-.1-.2-.2-.4-.4-.6-.2-.3-.5-.6-.7-1-.5-.6-1-1.3-.9-1.6.1-.1.2-.2.5-.2s.7.1 1.2.2c.3.1.7.1 1 .2.5.1 1.1.1 1.7.1 2.7.2 6.1.4 8.3 1.9 1.6 1 3.6 3.7 5.2 6-2-2.2-4.4-4.7-6.1-5.5-3.4-1.5-6.1-.8-8.5-.7-.2 0-.3.2-.2.4 1.4 2.6 2.3 5.2 5.4 7.2 1.8 1.1 5 1.8 7.7 2.3-3.2-.3-7.3-.9-9-2.1zm5.1-.4c-1.4-.5-4.9-2.6-3.9-4.4 1.2-2 4.5.2 5.7 1.4 1.4 1.3 3.6 3.4 3.4 3.9-.3.4-3.2-.2-5.2-.9zm4.3 6.2c.1.4-2.3 2.1-4.3 3-1.4.6-5.3 1.7-5.8-.3-.6-2.3 3.4-3 5-3.1 1.8-.1 4.9-.1 5.1.4zm-7.7 6.9c-2.5.6-6.6-.5-8.3-1-.2-.1-.5-.1-.7-.2-.4-.1-.8-.1-1.2-.2-.7-.1-1.7-.2-1.7-.6-.1-.3.4-.7 1.2-1.2.2-.2.6-.4.8-.6.4-.3.8-.7 1.3-1.1 2-1.8 4.6-4 7.2-4.5.5-.1 1.2-.2 1.8-.2 1.8 0 4.1.3 6 .7-2.9-.2-6.4-.2-8.2.4-3.4 1.3-4.8 3.7-6.6 5.5-.1.2-.1.4.1.4 2.8.9 5.3 2.1 8.9 1.3 2.1-.5 4.8-2.3 7.1-3.8-2.3 2.2-5.6 4.7-7.7 5.1zm10.2 7.7c-1.4 2.1-5 4.3-6.6 5.2-.2.1-.4.2-.6.4-.3.2-.6.5-.9.7-.6.5-1.3 1-1.6.9-.3-.2-.2-.8 0-1.7.1-.3.1-.7.2-1 .1-.5.1-1.1.1-1.7.2-2.7.4-6.1 1.9-8.3 1-1.6 3.7-3.6 6-5.2-2.2 2-4.7 4.4-5.5 6-1.5 3.4-.8 6.1-.7 8.5 0 .2.2.3.4.2 2.6-1.4 5.2-2.2 7.2-5.4 1.1-1.8 1.8-5 2.3-7.7-.4 3.3-1 7.4-2.2 9.1zm1.3-15.5c-.4-1.5.6-3.1 2-3.5.2-.1.5-.1.7-.1 1.3 0 2.5.9 2.8 2.1.2.7.1 1.5-.3 2.1-.4.7-1 1.1-1.7 1.3-.2.1-.5.1-.7.1-1.3.2-2.5-.8-2.8-2zm7.5 10.5c.6 1.3 1.7 5.3-.3 5.8-2.3.6-3-3.4-3.1-5-.1-1.9-.1-5 .4-5.2.4-.1 2.1 2.3 3 4.4zm2.9 11.6c-.1.2-.1.5-.2.7-.1.4-.1.8-.2 1.2-.1.7-.2 1.7-.6 1.7-.3.1-.7-.4-1.2-1.2-.2-.2-.4-.6-.6-.8-.3-.4-.7-.8-1.1-1.3-1.8-2.1-4-4.6-4.5-7.2-.4-1.9 0-5.2.5-7.9-.1 2.9-.1 6.5.5 8.2 1.3 3.4 3.7 4.8 5.5 6.6.2.1.4.1.4-.1.9-2.8 2.1-5.3 1.3-8.8-.5-2.1-2.2-4.8-3.8-7.1 2 2.5 4.5 5.8 4.8 7.9.7 2.3-.3 6.3-.8 8.1zm8.7-18.5c2.1 1.4 4.3 5 5.2 6.6.1.2.2.4.4.6.2.3.4.6.7.9.5.6 1 1.3.9 1.6s-.8.2-1.7 0c-.3-.1-.7-.1-1-.2-.5-.1-1.1-.1-1.7-.1-2.7-.2-6.1-.4-8.3-1.9-1.6-1-3.6-3.6-5.2-6 2 2.2 4.4 4.7 6 5.5 3.4 1.5 6.1.8 8.5.7.2 0 .3-.2.2-.4-1.4-2.6-2.2-5.2-5.4-7.2-1.8-1.1-5-1.8-7.7-2.3 3.3.3 7.4 1 9.1 2.2zm9-9.7c-.2.2-.6.4-.8.6-.4.3-.8.7-1.3 1.1-2 1.8-4.6 4-7.2 4.5-1.8.4-5.2 0-7.9-.5 2.9.2 6.4.2 8.2-.4 3.4-1.3 4.8-3.7 6.6-5.5.1-.2.1-.4-.1-.4-2.8-.9-5.3-2.1-8.8-1.3-2.1.5-4.8 2.2-7.1 3.8 2.5-2 5.8-4.4 7.9-4.8 2.5-.5 6.6.6 8.3 1 .3.1.5.1.7.2.4.1.8.1 1.2.2.7.1 1.7.2 1.7.6-.1.1-.7.4-1.4.9zm-24.9 7c.9-.2 1.4-1.1 1.2-2-.2-.7-.9-1.2-1.6-1.2-.1 0-.2 0-.4.1-.9.2-1.4 1.1-1.2 2 .2.7.9 1.2 1.6 1.2.1-.1.2-.1.4-.1zm-96.2-122.1c1.4 2.2 2.9 4.2 3.2 6.9.4 3.7.3 7.5-.7 11.1-.3 1.3-.7 3-2.3 3.1-1.8.1-2.2-1.7-2.5-3-1.4-4.9-1.4-9.9-.1-14.8.3-1.3.7-2.6 2.4-3.3zm-8.6 8.6c1.3 1.5 1.1 2.9.8 4.1-1.2 5-3.6 9.5-7.2 13.2-.9 1-2.1 2.2-3.5 1.5-1.5-.7-.9-2.4-.7-3.7.9-4.2 2.7-8.1 5.5-11.3 1.2-1.5 3.3-2.5 5.1-3.8zm-27.5-32c.5 3.1 1.2 6-.1 8.9-.9 2.1-1.8 4.2-2.9 6.2-.5 1-1.3 2-2.1 2.8-.7.8-1.6 1.7-2.8 1.2-1.2-.5-1.2-1.8-1.1-2.9.5-5.6 2.4-10.7 6.1-15 .8-1 .9-.9 2.9-1.2zm19.4 10.2c2.7-.3 5.1-1.4 7.8-.6 3.3 1 6.5 2 9.3 3.9 1 .6 1.9 1.5 2.6 2.4.7.9.4 1.8-.7 2.2-.7.3-1.5.4-2.2.3-5.4-.1-10.3-1.9-14.7-4.9-1-.7-1.9-1.5-2.1-3.3zm-15.2 4.7c1.5.8 1.7 2.1 1.7 3.2.3 5.4-1 10.6-3.7 15.3-.6 1.1-1.4 2.4-2.9 2-1.4-.4-1.4-2-1.5-3.2-.3-4.1.6-8.1 2-11.9.9-2.3 2.9-3.6 4.4-5.4zm10.2 27.2c-1.8 1.8-3.3 3.7-5.6 4.5-3.6 1.3-7.3 2-11.2 1.8-.9-.1-1.9-.2-2.7-.6-1.3-.5-1.5-1.6-.5-2.6.6-.7 1.4-1.2 2.2-1.7 4.2-2.2 8.7-3.2 13.4-3.1 1.5 0 3 .2 4.4 1.7zm-31.2-21.8c2.4 1.6 4.6 3.2 5.7 6 1.2 3.2 2.4 6.3 2.6 9.8.1 1.5.5 3.4-1.3 4-1.6.5-2.5-1.1-3.3-2.3-2.9-4.2-4.6-8.8-4.8-14-.1-1.2-.3-2.4 1.1-3.5zm28.8-22.4c1.5 2.1 3.1 4.2 3.3 6.9.3 3.6.4 7.3-.6 10.8-.4 1.3-.6 3.2-2.4 3.1-1.6 0-2-1.7-2.3-3-1.5-5-1.7-10-.3-15 .2-1.1.6-2.4 2.3-2.8zm15.9 26c.2 1.8-.7 2.6-1.5 3.2-4.6 3.4-9.8 5.2-15.6 5.2-.3 0-.7 0-1-.1-1.9-.4-2.3-1.6-1-3 .5-.6 1.2-1.2 1.9-1.6 3.4-2.2 7.1-3.7 11-4.3 1.9-.4 4.1.3 6.2.6z"/>
  <g fill="#D6B24D">
    <path d="M354.5 219.7c-7.2-1.2-12.6-7-19.1-10.2-6.1-3-12.9-4.9-19.6-6.2-6.4-1.1-13.1-1.5-19.6-.5-2.9.5-5.6 1.2-8.3 2.3-1.5.6-4.1 1.6-5.1 3.1-1.7-.7-3.4-1.4-5.1-2-.3-.1-1.2.5-.8.8 1.3.9 2.7 1.7 4.1 2.5 2.4 7.1 8.3 11.6 14.3 15.5 6.4 4.1 13.7 6.7 21.2 7.8 6.5.9 13.2.4 19.1-2.7 2.9-1.5 5.5-3.5 8.2-5.3 2.8-1.9 5.7-2.8 8.8-3.7.3.1.6.1.9.2.6.2 2-1.4 1-1.6zm-68.3-12.2c2.9-1.5 6.2-2.3 9.4-2.8 7.2-1.2 14.7-.5 21.8 1 6.3 1.3 12.4 3.4 18.1 6.3 4.4 2.2 8.1 5.5 12.4 7.6-4.1-.1-8.2.2-12.1.3-6.8.2-13.6-.2-20.3-1.1-6.5-.9-12.8-2.5-19-4.6-4.4-1.5-8.5-3.6-12.8-5.4.9-.4 1.7-.9 2.5-1.3zm54.6 17.8c-2.8 1.8-5.5 3.6-8.6 4.7-3.7 1.4-8.2 1.3-12.1 1-7.4-.5-14.7-3.1-21.2-6.5-5.8-3.1-11.9-7.5-15.1-13.5 1.3.6 2.7 1.2 4.1 1.7v.1c2.4 4 5.7 8 10.5 9 .1 0 .5-.1.4-.3-1.3-1.6-3-2.7-4.5-4.1-1.7-1.5-3.4-2.9-5.1-4.2 2.1.8 4.2 1.5 6.2 2.2 5.9 2.1 12 3.6 18.2 4.6 6.6 1.1 13.4 1.3 20.1 1.3 4.4 0 9 .3 13.6.1-2.5 1.2-4.7 2.8-6.5 3.9z"/>
    <path d="M305.3 220.8c-2.1-1.4-4.1-3.3-6.5-4.1-.2-.1-.7.1-.6.3.8 1.9 2.8 3.2 4.4 4.4 2.2 1.6 4.2 3.1 6.8 3.8.1 0 .6-.1.5-.3-1.1-1.8-2.9-2.9-4.6-4.1zm4.8-1.2c-.3-.1-1 .3-.7.5 3.4 2.8 6.9 5.1 11.4 5.5.1 0 .5-.2.3-.3-3.6-2.1-7.4-3.8-11-5.7zm22.8 4.5c-3.4-.6-6.8-1.7-10.1-2.9 0 0-.2 0-.1.1 2.7 2.8 6.3 3.5 10 3.1.1 0 .5-.2.2-.3zm-4.8-5.9c2.7-.8 5.5-1.5 8.1-2.8.1 0 .2-.2 0-.2-2.2-.2-4.4.6-6.5 1.2-2.4.7-5.1 1.1-7.2 2.5-.1.1-.3.3-.1.4 1.8.6 4-.6 5.7-1.1zm-17.9-.7c1.3.4 3-.9 4.1-1.4 2.3-1.1 4.6-2.1 7-2.9.3-.1.9-.8.2-.8-2 .1-3.9.9-5.7 1.7-1.9.8-4.2 1.6-5.6 3.1-.1 0-.2.2 0 .3zm-8.9-2.7c1 .1 2.3-1.3 3-1.8 1.5-1 3.4-1.8 5.2-2.1.2 0 1-.6.5-.7-1.8-.3-3.4.4-5 1.2-.8.4-4.2 2.1-3.9 3.4h.2zm-1.2-6.6c-2.3.1-4.4.5-6.4 1.6-.7.4-.9 1.5.1 1 2-1 4.1-1.8 6.3-2.6 0 .1.1 0 0 0zm-22.6-3.8c3.6-2.7 6.6-6 10.4-8.6 1.4-1 2.8-1.8 4.3-2.7 1.3 1.2 3.3 1.1 4.9 1.3 1.7.2 3.4.3 5.1-.1.1 0 .5-.2.3-.4-1.1-.7-2.3-.8-3.6-1-2.2-.3-4.4-.5-6.6 0 2.5-1.4 5.1-2.6 7.7-3.8 4.2-1.8 8.6-3.3 13.1-4.6 3.5-1 7.2-1.5 10.5-3 .1 0 .3-.2.1-.3-3.6-.4-7.8 1.2-11.3 2.2-3.7 1.1-7.3 2.3-10.8 3.7 1-.6 1.9-1.3 2.8-2 1-.8 2.6-1.5 3.3-2.7.1-.1.1-.3-.1-.4-1.1-.3-2.6 1.4-3.4 2-1.1.9-2.4 1.9-3 3.2-1 .4-2 .9-3.1 1.3-4 1.8-7.9 4-11.5 6.6-3.3 2.4-7.4 5.3-9.5 8.9-.3.6.3.4.4.4z"/>
    <path d="M280.4 200.1c2.5-4.5 3.9-9.1 7.5-13 3.7-4.1 8.6-6.8 13.8-8.5 4.4-1.4 9.1-1.9 13.7-1.7 4.2.2 8.5 2.1 12.6 1-5.2 5.1-8.4 12-14.6 16.4-3.8 2.7-8.4 4-12.9 4.7-5.6.9-12.2-.2-17.3 2.6-.3.2-1.1 1-.3 1 3.6-.2 7.1-.8 10.7-.9 2.7-.1 5.4-.5 8-1 4.4-.8 8.4-2.5 12.1-5 3.2-2.2 5.8-5.1 8.1-8.1 2.4-3 5.7-6.5 7.3-10.1h.1c.5-.2 1.6-1.8.4-1.5-3.7 1-6.5 0-10.2-.4-2.7-.3-5.4-.4-8.2-.3-4.8.3-9.5 1.5-13.8 3.5-4.1 1.9-7.8 4.6-10.9 7.9-3 3.2-7.4 9.1-7.2 13.7.2.3 1-.1 1.1-.3z"/>
    <path d="M310 189.6c-.8-1.1-2.5-1.1-3.7-1.2-1.6-.1-3.3.2-4.7.9 0 0-.1 0 0 .1 1.2.4 2.5.4 3.8.5 1.5.1 2.9.4 4.4.1 0-.1.3-.3.2-.4zm-13.6-5.9c-.7 1-1 2.1-1.6 3.1-.4.7-1 1.4-1.4 2.2-.1.2.3.1.4.1 1.1-.7 1.9-1.5 2.6-2.6.3-.5.5-1 .7-1.6.2-.6.2-.8-.1-1.3-.1-.2-.5 0-.6.1z"/>
  </g>
  <g fill="#D6B24D">
    <path d="M218.7 310.2c.5.5.8 1.1 1 1.7.3.8.5 1.6 1.5 1.2 2.9-1.1.4-5.8-1.8-6.4-2.4-.7-5 1.2-6.7 2.6-2.5 2-4.8 4.4-6.9 6.9-6.1 7-11.5 14.6-17.7 21.5-2 2.3-4.2 4.6-6.4 6.8-1.7 1.7-3.5 3.4-3.3 6 .5 4.8 5.4 7.7 9.9 6 3.8-1.4 6.5-5 8.9-8.1 3.2-4.2 6.4-8.4 9.7-12.6 3.5-4.5 6.9-9.1 10.2-13.8.8-1.2 1.6-2.3 2.4-3.5.8-1.1 1.7-2.2 2.3-3.5.8-1.6-1.9-1.5-2.6-.4-2.1 3.7-12.5 17.5-19.1 26-.1-.4-.4-.8-.6-1-.5-.6-1-1.1-1.8-1.2-.4-.1-1-.2-1.2.4-.2.6.5.6.5 1 .6.5 1.2 1.1 1.8 1.5.1.1.3.2.5.3-.4.6-.9 1.2-1.3 1.7-.2-.5-.5-.9-.8-1.3-.6-.7-1.2-1.2-2.1-1.5-.4-.1-1.3-.4-1.5.2-.2.5.5.9.8 1.2.8.7 1.6 1.5 2.4 2.1.1.1.2.2.4.3-.4.5-.8 1-1.2 1.6-.2.2-.3.4-.5.6v-.1c-.1-.9-1-1.7-1.7-1.9-.4-.1-1-.2-1.2.1-.3.4.4 1.2.5 1.2.6.6 1 1.2 1.4 1.9 0 0 0 .1.1.1-.4.6-.9 1.1-1.4 1.6 0-.2 0-.5-.1-.6-.2-1-.8-2-1.8-2.4-.4-.2-1-.4-1.2.1-.2.5.2.8.4 1.1.5.7.9 1.5 1.4 2.2.1.2.3.4.4.5-1.4 1.5-3 2.8-4.9 3.4-1.7.6-3.3.3-4.6-1-1.2-1.2-3-4.5.5-4.6.9.1 1.8.5 2.4 1.3 0 0 .6 1.2.6 1.4-.1.6-.7.7-1.2.6-.5-.1-1-.4-1.5-.4-.7.1.9 1.3 1 1.4 1.3.6 2.8.2 3.3-1.2.7-2.6-2.2-4.8-4.5-4.6-.2 0-.6.1-1.2.2 1.6-2.5 4.2-4.5 6.3-6.5 4-3.7 7.1-8.5 10.5-12.7 3.1-3.8 6.4-7.5 9.6-11.3 1.9-2.3 4.1-5.1 6.9-6.4 1.1-.3 2.3-.5 3.2.3z"/>
    <path d="M212.2 318.4c-1.7 1.7-3.1 3.7-4.7 5.5-1.7 1.8-3.2 3.6-4.6 5.7-.7 1.1-2 2.8-2.1 4.2-.1 1 1.3-.6 1.4-.8.3-.3.5-.7.8-1 .1-.2.9-.9.9-1.2.4-.5.7-.9 1.1-1.4 2.3-3 5-5.6 6.9-8.9.3-.5.6-1 .8-1.6.3-.7.2-1.2-.5-.5zm-23.5 14.9c.2-.2 1.3-1.2 1.6-1.5 1.8-1.7 3.5-3.5 5.2-5.4.5-.6 1.2-1.3 1.5-2.1.3-.9-.8-.5-1.2-.3-1.4.8-2.7 2-3.9 3-1.2 1-3.9 3-4 3.2-4.3 3.8-8.4 8-13.4 10.8-2 1.1-4.4 2-6.5.6-1.1-.7-1.6-1.8-1.6-2.9-.1-.7.2-1.2.4-1.4.7-.6 2.5-.9 2.9-.9.7 0 .9.1 1.4.5.8.7.4 1.5 0 2.3-.3.3-.6.4-.9.2-.4-.3-.9-.7-1.4-.8-.7-.1.7 1.6.7 1.6 1.6 1.6 3.5-.6 3.7-2.2.2-1.5-1.1-3-2.5-3.4-.8-.2-1.7 0-2.4.3-.1.1-.5.3-.9.5l.3-.3c1-1 2.2-1.9 3.4-2.8 1.4-1.1 2.7-2.1 4.1-3.2 2.6-2 5.2-4.1 7.9-6.1 5.3-4 20.9-16.4 23.8-17.9 1-.5 2.5-1.3 3.6-.7 1.6.8.6 2.9 1.6 3.9.5.5 1.3.5 1.7 0 .6-.8.2-2.3 0-3.1-.6-2.1-2.2-3.6-4.3-4-2.1-.4-4.2.9-5.9 2.1-1.7 1.3-3.2 2.9-4.8 4.2-4.9 4.1-10.2 8-15.4 11.8-4.7 3.5-9.3 7.1-14.2 10.5-1.8 1.3-3.8 2.7-5 4.6-1.2 2-.9 4 0 6.1.8 1.9 2.1 3.6 4 4.4 1.6.7 3.4.6 5 .1 4.4-1.3 8-4.7 11.3-7.7 1.3-1.3 2.7-2.7 4.2-4z"/>
    <path d="M186.2 325.6c-2.2 1.5-4.9 4.4-7.6 6.4-1.1.8-2.5 1.6-3.4 2.7-.7 1 2.8-.5 4.5-1.7 2.6-1.9 5-4.2 7.4-6.2.2-.1 1.5-1.4 1.7-1.6.2-.2 1.3-1.1 1-1.6-.3-.4-3.3 1.8-3.6 2zm12.4-8.7c-.7 1 .8 2 1.5.9.6-1-.9-1.8-1.5-.9zm-5.4 2c-.7 1 .8 2 1.5.9s-.8-1.9-1.5-.9zm8.7-7.3c-.7 1 .8 2 1.5.9.7-1-.9-1.9-1.5-.9zm12.6 2.4c-.7 1 .8 2 1.5.9s-.8-1.9-1.5-.9z"/>
  </g>
</svg>
